<svg xmlns="http://www.w3.org/2000/svg" height="512" viewBox="0 0 511.953 511.953" width="512"><path d="M0 145.045h154.635v221.863H0z" fill="#d9f2ff"/><path d="M0 255.977h154.635V366.91H0z" fill="#cdf"/><path d="M124.635 145.045v221.863l187.872 101.56V43.486z" fill="#e6ffff"/><path d="M124.635 255.977v110.93l187.872 101.56v-212.5z" fill="#d9f2ff"/><path d="M451.355 402.273l-21.213-21.213c33.4-33.4 51.8-77.833 51.8-125.084s-18.4-91.673-51.8-125.084l21.213-21.213c39.077 39.077 60.598 91.033 60.598 146.297s-21.52 107.22-60.598 146.297zM404.292 355.2l-21.213-21.213c20.84-20.84 32.317-48.548 32.317-78.02s-11.477-57.18-32.317-78.02l21.213-21.213c26.506 26.506 41.104 61.748 41.104 99.234s-14.598 72.73-41.104 99.234zm-46.394-46.382l-21.213-21.214a44.43 44.43 0 0 0 .001-63.254l21.213-21.214c14.114 14.114 21.888 32.88 21.888 52.84s-7.773 38.727-21.888 52.84z" fill="#ffda2d"/><path d="M430.142 381.06l21.213 21.213c39.077-39.077 60.598-91.033 60.598-146.297h-30c0 47.25-18.4 91.672-51.8 125.084zm-47.062-47.062l21.213 21.213c26.506-26.506 41.104-61.748 41.104-99.234h-30c0 29.472-11.478 57.18-32.317 78.02zm-46.394-46.394l21.213 21.214c14.114-14.114 21.888-32.88 21.888-52.84h-30c-.001 11.947-4.653 23.18-13.1 31.627z" fill="#fdbf00"/></svg>